:version 1.10
:name ASF
:units
  mass 1
  length 1
  angle deg
:documentation
  ASF file generated by Kaydara
:root
  axis xyz
  order  tx ty tz rx ry rz
  position 0 0 0
  orientation 0 0 0
:bonedata
  begin
    id 1
    name RightUpLegDummy
    direction -0.718183 -0.695806 0.00816078
    length 4.904
    axis 0 0 0 xyz
  end
  begin
    id 2
    name RightUpLeg
    direction 3.53373e-006 -0.995788 0.0916898
    length 17.4976
    axis -3.49089 -0.000906625 0.000286804 xyz
    dof rx ry rz
  end
  begin
    id 3
    name RightLeg
    direction 0.00371092 -0.995096 -0.0988419
    length 16.5821
    axis 3.68512 0.0193738 -0.131023 xyz
    dof rx ry rz
  end
  begin
    id 4
    name RightFoot
    direction 0.00079151 -0.46099 0.887405
    length 3.77069
    axis 4.81691e-005 -0.120479 -0.188788 xyz
    dof rx ry rz
  end
  begin
    id 5
    name RightToes
    direction 0 0 0
    length 0
    axis 0 0 0 xyz
    dof rx ry rz
  end
  begin
    id 6
    name SpineDummy
    direction 8.3039e-015 1 4.57515e-016
    length 4.6813
    axis 0 0 0 xyz
  end
  begin
    id 7
    name Spine
    direction -3.15643e-008 0.999988 0.00495137
    length 10.1015
    axis -0.001389 0.000121418 2.40972e-006 xyz
    dof rx ry rz
  end
  begin
    id 8
    name Spine1
    direction 0 0 0
    length 0
    axis -0.001389 0.000121451 1.30017e-006 xyz
    dof rx ry rz
  end
  begin
    id 9
    name HEadDummy
    direction -1.99912e-008 0.999999 0.00127422
    length 3.43865
    axis -0.001389 0.000121451 1.30017e-006 xyz
  end
  begin
    id 10
    name HEad
    direction 0 0 0
    length 0
    axis 0 0 0 xyz
    dof rx ry rz
  end
  begin
    id 11
    name LeftShoulder1Dummy
    direction 0.998891 -0.0402509 -0.0244456
    length 3.5433
    axis -0.001389 0.000121451 1.30017e-006 xyz
  end
  begin
    id 12
    name LeftShoulder1
    direction 0.99951 -0.000327763 0.0313091
    length 4.05031
    axis -0.001389 0.000121451 1.30017e-006 xyz
    dof rx ry rz
  end
  begin
    id 13
    name LeftArm
    direction 0.998561 -0.00100056 -0.0536182
    length 10.3537
    axis -23.1894 0.134784 0.967509 xyz
    dof rx ry rz
  end
  begin
    id 14
    name LeftForeArm
    direction 0.998903 0.00866432 0.046012
    length 8.70632
    axis -9.91835 -0.06569 -0.177794 xyz
    dof rx ry rz
  end
  begin
    id 15
    name LeftHand
    direction 0 0 0
    length 0
    axis 0 0 0 xyz
    dof rx ry rz
  end
  begin
    id 16
    name RightShoulderDummy
    direction -0.998891 -0.0402509 -0.0244414
    length 3.5433
    axis -0.001389 0.000121451 1.30017e-006 xyz
  end
  begin
    id 17
    name RightShoulder
    direction -0.99951 -0.000327807 0.0313133
    length 4.05031
    axis 0.215806 0.000203643 -0.0068026 xyz
    dof rx ry rz
  end
  begin
    id 18
    name RightArm
    direction -0.998573 -0.000999564 -0.053403
    length 10.3947
    axis -23.2009 -0.134239 -0.964101 xyz
    dof rx ry rz
  end
  begin
    id 19
    name RightForeArm
    direction -0.998898 0.00868028 0.0461306
    length 8.68355
    axis -9.92322 0.0658061 0.178868 xyz
    dof rx ry rz
  end
  begin
    id 20
    name RightHand
    direction 0 0 0
    length 0
    axis 0 0 0 xyz
    dof rx ry rz
  end
  begin
    id 21
    name LeftUpLegDummy
    direction 0.718183 -0.695806 0.00816078
    length 4.904
    axis 0 0 0 xyz
  end
  begin
    id 22
    name LeftUpLeg
    direction -6.81752e-006 -0.995793 0.0916337
    length 17.4976
    axis -3.48766 0.00143442 -0.000524262 xyz
    dof rx ry rz
  end
  begin
    id 23
    name LeftLeg
    direction -0.00601358 -0.995091 -0.0987824
    length 16.5821
    axis 3.68178 -0.00654042 -0.000285133 xyz
    dof rx ry rz
  end
  begin
    id 24
    name LeftFoot
    direction -0.00417578 -0.460984 0.887399
    length 3.77069
    axis 1.87233e-006 4.66016e-005 -8.6538e-006 xyz
    dof rx ry rz
  end
  begin
    id 25
    name LeftToes
    direction 0 0 0
    length 0
    axis 0 0 0 xyz
    dof rx ry rz
  end
:hierarchy
  begin
    root RightUpLegDummy SpineDummy LeftUpLegDummy
    RightUpLegDummy RightUpLeg
    RightUpLeg RightLeg
    RightLeg RightFoot
    RightFoot RightToes
    SpineDummy Spine
    Spine Spine1
    Spine1 HEadDummy LeftShoulder1Dummy RightShoulderDummy
    HEadDummy HEad
    LeftShoulder1Dummy LeftShoulder1
    LeftShoulder1 LeftArm
    LeftArm LeftForeArm
    LeftForeArm LeftHand
    RightShoulderDummy RightShoulder
    RightShoulder RightArm
    RightArm RightForeArm
    RightForeArm RightHand
    LeftUpLegDummy LeftUpLeg
    LeftUpLeg LeftLeg
    LeftLeg LeftFoot
    LeftFoot LeftToes
  end

:SAMPLES-PER-SECOND 30
:FULLY-SPECIFIED
:DEGREES
98
root  34.5212 39.4413 9.15417 8.7496 87.6573 15.6492
RightUpLeg  -4.77107 -13.9897 -12.4168
RightLeg  21.2178 -2.17984 -1.15981
RightFoot  -5.74969 -0.317506 5.69411
RightToes  0.000481921 0.542163 -0.142578
Spine  10.9501 -1.92302 -1.70664
Spine1  10.7497 -4.35089 7.84501
HEad  14.9169 8.43891 -9.00719
LeftShoulder1  7.50011 -13.2097 -38.6967
LeftArm  -5.29762 -14.5463 -42.9048
LeftForeArm  -165.644 -51.4151 -169.091
LeftHand  -0.25398 0.0180481 5.50724
RightShoulder  5.57328 10.6724 33.3756
RightArm  -8.3806 9.7355 43.6824
RightForeArm  -170.405 47.7212 170.113
RightHand  -0.92244 -10.0151 19.4736
LeftUpLeg  -3.26795 14.3622 5.29797
LeftLeg  21.8076 7.64215 3.71492
LeftFoot  -7.38995 0.238753 -5.62856
LeftToes  1.06244e-005 4.65869e-005 -8.65518e-006
99
root  34.5186 39.2783 9.31917 145.579 86.4074 151.728
RightUpLeg  -4.92696 -17.8326 -12.4271
RightLeg  23.1926 -3.5803 -1.90218
RightFoot  -6.85234 -0.268289 5.65347
RightToes  0.000481921 0.542163 -0.142578
Spine  12.079 -2.43978 -3.37665
Spine1  9.55209 -5.99076 11.8708
HEad  13.4593 7.0043 -11.6984
LeftShoulder1  7.34645 -12.5285 -39.5976
LeftArm  -4.01379 -15.3247 -43.0292
LeftForeArm  -164.868 -51.4001 -169.148
LeftHand  -0.25398 0.0180481 5.50724
RightShoulder  5.38007 9.81468 34.445
RightArm  -17.9394 4.31791 37.6233
RightForeArm  -161.733 41.6448 172.569
RightHand  -1.80684 -11.3378 32.0766
LeftUpLeg  -6.44714 9.9395 5.05543
LeftLeg  24.1006 6.42656 3.46243
LeftFoot  -7.36386 0.227584 -5.28833
LeftToes  1.06244e-005 4.65869e-005 -8.65518e-006
100
root  34.5632 39.2817 9.55701 175.076 79.8388 179.599
RightUpLeg  -4.67772 -23.2435 -12.3481
RightLeg  23.3358 -5.0611 -2.63152
RightFoot  -7.2239 -0.256135 5.75053
RightToes  0.000481921 0.542163 -0.142578
Spine  12.2042 -2.95955 -4.31595
Spine1  8.09266 -7.20864 14.8089
HEad  12.1428 4.23198 -14.3031
LeftShoulder1  7.43644 -12.3024 -40.7508
LeftArm  -1.62964 -14.9089 -43.5496
LeftForeArm  -163.423 -51.685 -169.131
LeftHand  -0.25398 0.0180481 5.50724
RightShoulder  4.799 8.47287 34.1046
RightArm  -30.6273 -1.32795 31.7876
RightForeArm  -161.311 37.9913 173.573
RightHand  -2.2247 -11.8044 36.1247
LeftUpLeg  -9.63644 6.6336 4.96183
LeftLeg  24.0191 3.3166 1.95892
LeftFoot  -6.36381 0.244972 -4.76584
LeftToes  1.06244e-005 4.65869e-005 -8.65518e-006
101
root  34.5778 39.4269 9.85439 176.607 72.8714 179.084
RightUpLeg  -4.38328 -28.5349 -12.3698
RightLeg  22.2654 -6.9175 -3.16765
RightFoot  -6.8966 -0.269691 5.73674
RightToes  0.000481921 0.542163 -0.142578
Spine  12.0786 -3.26724 -4.26017
Spine1  6.40445 -7.4314 15.2882
HEad  11.3614 0.279667 -15.1783
LeftShoulder1  7.59011 -12.572 -40.9133
LeftArm  1.36022 -13.3353 -44.5112
LeftForeArm  -162.288 -52.2417 -168.982
LeftHand  -0.25398 0.0180481 5.50724
RightShoulder  4.0173 7.06769 32.046
RightArm  -41.6654 -5.02499 27.0716
RightForeArm  -162.403 39.5541 173.11
RightHand  -3.19744 -14.5266 36.2653
LeftUpLeg  -12.2225 4.82607 4.58313
LeftLeg  21.7475 -0.944302 -0.0718541
LeftFoot  -4.2462 0.308602 -4.5553
LeftToes  1.06244e-005 4.65869e-005 -8.65518e-006
102
root  34.5013 39.6346 10.1687 177.36 67.0915 178.056
RightUpLeg  -3.98906 -30.8616 -12.7
RightLeg  20.7551 -10.5789 -3.20676
RightFoot  -6.05999 -0.298372 5.56951
RightToes  0.000481921 0.542163 -0.142578
Spine  12.4104 -3.10329 -2.52123
Spine1  4.83491 -6.29263 12.5202
HEad  10.9311 -4.8139 -13.2683
LeftShoulder1  7.62979 -13.1016 -39.7184
LeftArm  4.49432 -12.1455 -45.8024
LeftForeArm  -162.27 -53.294 -168.546
LeftHand  -0.25398 0.0180481 5.50724
RightShoulder  3.28723 5.85958 29.1217
RightArm  -46.8343 -3.70549 21.9432
RightForeArm  -155.847 46.1854 171.782
RightHand  -4.86392 -17.3697 41.9676
LeftUpLeg  -13.6078 4.13471 3.79965
LeftLeg  18.0583 -5.14194 -1.54474
LeftFoot  -1.36389 0.421009 -4.72298
LeftToes  1.06244e-005 4.65869e-005 -8.65518e-006
103
root  34.311 39.8258 10.4503 177.548 63.6014 177.292
RightUpLeg  -3.4894 -29.3232 -13.0535
RightLeg  19.2776 -15.728 -2.86057
RightFoot  -4.97015 -0.334496 5.39697
RightToes  0.000481921 0.542163 -0.142578
Spine  13.3948 -2.41391 1.26157
Spine1  3.83376 -3.90065 6.89537
HEad  10.5893 -10.3156 -9.73272
LeftShoulder1  7.70664 -13.8045 -38.3584
LeftArm  6.92518 -12.2981 -46.705
LeftForeArm  -163.515 -54.8316 -167.786
LeftHand  -0.25398 0.0180481 5.50724
RightShoulder  2.71308 5.10422 25.4168
RightArm  -47.9098 4.10424 16.0126
RightForeArm  -150.913 60.3767 165.35
RightHand  -5.71737 -17.6896 48.0182
LeftUpLeg  -13.5762 4.08505 3.11921
LeftLeg  13.9736 -7.93005 -2.07657
LeftFoot  1.44107 0.53522 -4.86049
LeftToes  1.06244e-005 4.65869e-005 -8.65518e-006
104
root  34.0024 39.9428 10.6659 177.227 63.3861 176.885
RightUpLeg  -3.73112 -27.3068 -12.7977
RightLeg  18.3329 -18.0395 -2.74846
RightFoot  -3.95387 -0.352147 5.03656
RightToes  0.000481921 0.542163 -0.142578
Spine  14.8699 -1.38505 6.98745
Spine1  3.73188 -0.408043 -1.08866
HEad  10.6997 -14.965 -6.6242
LeftShoulder1  7.88043 -14.6315 -37.3269
LeftArm  7.84334 -13.4274 -46.8649
LeftForeArm  -165.89 -56.4531 -166.844
LeftHand  -0.25398 0.0180481 5.50724
RightShoulder  2.24847 4.99868 20.0691
RightArm  -49.1012 17.4151 10.8266
RightForeArm  161.982 79.0947 110.243
RightHand  -4.41188 -16.0231 41.7435
LeftUpLeg  -12.6483 4.32787 3.07958
LeftLeg  10.7583 -7.97411 -2.12807
LeftFoot  3.36644 0.586443 -4.70268
LeftToes  1.06244e-005 4.65869e-005 -8.65518e-006
105
root  33.6307 39.9701 10.827 176.051 66.3344 175.846
RightUpLeg  -5.56618 -26.7794 -11.875
RightLeg  18.4311 -15.7426 -3.1738
RightFoot  -3.29343 -0.32347 4.27604
RightToes  0.000481921 0.542163 -0.142578
Spine  16.7276 -0.214699 13.7108
Spine1  4.24694 4.05149 -10.8647
HEad  11.4504 -18.3879 -4.52208
LeftShoulder1  7.86886 -15.3361 -35.6812
LeftArm  7.61876 -15.1356 -47.1838
LeftForeArm  -168.646 -57.8824 -165.896
LeftHand  -0.25398 0.0180481 5.50724
RightShoulder  1.78079 5.41108 13.0334
RightArm  -52.3827 32.3957 6.29389
RightForeArm  65.9638 54.3138 8.23527
RightHand  -1.04871 -9.59591 23.4415
LeftUpLeg  -11.7904 5.14788 3.39454
LeftLeg  9.17397 -5.61132 -2.14551
LeftFoot  4.21177 0.587919 -4.49062
LeftToes  1.06244e-005 4.65869e-005 -8.65518e-006
106
root  33.336 39.9437 10.9831 173.859 70.3444 173.36
RightUpLeg  -8.45165 -26.4241 -10.7459
RightLeg  19.2454 -12.2441 -3.69157
RightFoot  -3.04302 -0.265838 3.37373
RightToes  0.000481921 0.542163 -0.142578
Spine  18.8129 0.96853 18.9759
Spine1  4.40166 8.38405 -19.5554
HEad  12.0238 -20.8796 -2.91224
LeftShoulder1  7.59955 -15.593 -33.7344
LeftArm  7.40086 -17.0181 -48.3812
LeftForeArm  -170.009 -58.861 -165.247
LeftHand  -0.25398 0.0180481 5.50724
RightShoulder  1.29841 5.91978 6.08004
RightArm  -52.9935 43.3705 2.42755
RightForeArm  61.8974 24.8974 1.58278
RightHand  0.434517 -0.674154 8.89158
LeftUpLeg  -11.5403 6.33448 3.63967
LeftLeg  8.67924 -2.60933 -2.31036
LeftFoot  4.42999 0.603136 -4.54812
LeftToes  1.06244e-005 4.65869e-005 -8.65518e-006
107
root  33.2367 39.9105 11.1617 172.031 72.5513 170.797
RightUpLeg  -10.7883 -26.3268 -9.92828
RightLeg  20.0499 -10.2921 -3.87466
RightFoot  -3.1921 -0.220743 2.79113
RightToes  0.000481921 0.542163 -0.142578
Spine  20.0546 1.95711 20.6678
Spine1  4.1723 10.7198 -23.1888
HEad  11.7518 -22.238 -1.79927
LeftShoulder1  7.43986 -15.4251 -33.2536
LeftArm  7.44949 -18.0214 -49.6971
LeftForeArm  -169.136 -58.9249 -165.277
LeftHand  -0.25398 0.0180481 5.50724
RightShoulder  1.00481 6.1328 2.32144
RightArm  -46.1104 48.7056 2.50185
RightForeArm  56.0064 24.1784 2.12608
RightHand  0.293548 4.84486 2.69382
LeftUpLeg  -11.8851 6.98456 3.75393
LeftLeg  8.37733 -0.849359 -2.53237
LeftFoot  4.51338 0.647459 -4.84558
LeftToes  1.06244e-005 4.65869e-005 -8.65518e-006
108
root  33.3156 39.8826 11.3463 172.557 71.9755 170.773
RightUpLeg  -11.6097 -27.4285 -9.37904
RightLeg  20.649 -9.85489 -4.08089
RightFoot  -3.68311 -0.207845 2.73169
RightToes  0.000481921 0.542163 -0.142578
Spine  19.7215 2.44608 19.1285
Spine1  4.48701 10.5024 -21.0773
HEad  11.0908 -22.1699 -1.43541
LeftShoulder1  7.59884 -15.3148 -34.317
LeftArm  7.03696 -17.6695 -50.1213
LeftForeArm  -167.717 -58.1511 -165.821
LeftHand  -0.25398 0.0180481 5.50724
RightShoulder  1.2202 6.56019 4.19741
RightArm  -41.5524 50.4959 8.11636
RightForeArm  54.6507 47.2751 9.0814
RightHand  0.0217865 5.66659 -0.26603
LeftUpLeg  -12.4728 6.69774 3.88343
LeftLeg  8.25068 -0.997664 -2.54402
LeftFoot  4.52517 0.693894 -5.17566
LeftToes  1.06244e-005 4.65869e-005 -8.65518e-006
109
root  33.475 39.848 11.5125 174.036 69.9642 172.478
RightUpLeg  -11.0049 -28.4345 -9.12711
RightLeg  21.3392 -10.7055 -4.7395
RightFoot  -4.35407 -0.213452 3.01091
RightToes  0.000481921 0.542163 -0.142578
Spine  18.7198 2.33428 16.2812
Spine1  5.66198 8.96471 -16.6647
HEad  10.5636 -21.2267 -1.1831
LeftShoulder1  7.75755 -15.3231 -35.1306
LeftArm  6.14055 -17.3842 -49.8394
LeftForeArm  -167.538 -57.5027 -166.185
LeftHand  -0.25398 0.0180481 5.50724
RightShoulder  2.1599 8.45062 10.7764
RightArm  -33.235 49.1551 17.9529
RightForeArm  75.0526 74.7334 36.4189
RightHand  0.0915569 3.38367 0.983925
LeftUpLeg  -12.7358 6.10804 4.04049
LeftLeg  8.66763 -2.39579 -2.2857
LeftFoot  4.3232 0.720992 -5.4309
LeftToes  1.06244e-005 4.65869e-005 -8.65518e-006
110
root  33.6606 39.8153 11.6407 174.417 68.0859 173.624
RightUpLeg  -9.71121 -28.338 -9.30584
RightLeg  22.0954 -12.3042 -5.65647
RightFoot  -5.01876 -0.218962 3.34426
RightToes  0.000481921 0.542163 -0.142578
Spine  17.932 2.04758 13.7503
Spine1  7.15528 7.5283 -13.0596
HEad  10.1133 -20.2524 -0.649605
LeftShoulder1  7.68128 -15.0568 -35.3094
LeftArm  5.47115 -18.506 -49.269
LeftForeArm  -167.755 -57.5668 -166.133
LeftHand  -0.25398 0.0180481 5.50724
RightShoulder  3.78148 11.2747 19.0779
RightArm  -23.2887 43.9098 26.5455
RightForeArm  -176.933 76.1518 144.866
RightHand  0.343095 2.07846 5.11044
LeftUpLeg  -12.4208 5.5519 4.113
LeftLeg  9.27904 -3.7613 -1.99441
LeftFoot  4.00773 0.733364 -5.62095
LeftToes  1.06244e-005 4.65869e-005 -8.65518e-006
111
root  33.8594 39.8104 11.6949 174.034 66.824 173.969
RightUpLeg  -8.26441 -28.2358 -9.77998
RightLeg  22.3653 -13.3224 -6.15882
RightFoot  -5.52613 -0.219373 3.57547
RightToes  0.000481921 0.542163 -0.142578
Spine  17.0312 1.95839 11.6605
Spine1  8.56376 6.44127 -10.077
HEad  9.72971 -19.166 -0.59494
LeftShoulder1  7.55452 -14.4851 -35.9115
LeftArm  4.89127 -20.4057 -48.2805
LeftForeArm  -167.062 -57.745 -166.092
LeftHand  -0.25398 0.0180481 5.50724
RightShoulder  5.53425 13.1869 27.1698
RightArm  -17.391 36.8638 30.0795
RightForeArm  -155.643 60.912 165.902
RightHand  0.571112 1.32508 9.78595
LeftUpLeg  -11.7115 4.99349 4.09318
LeftLeg  9.48386 -4.54631 -1.8147
LeftFoot  3.78635 0.741402 -5.75436
LeftToes  1.06244e-005 4.65869e-005 -8.65518e-006
